<svg width="14" height="14" viewBox="0 0 14 14" fill="none" xmlns="http://www.w3.org/2000/svg">
<path d="M6.66667 8.83333L9.69417 7.08333L6.66667 5.33333V8.83333ZM13.41 4.26583C13.4858 4.54 13.5383 4.9075 13.5733 5.37417C13.6142 5.84083 13.6317 6.24333 13.6317 6.59333L13.6667 7.08333C13.6667 8.36083 13.5733 9.3 13.41 9.90083C13.2642 10.4258 12.9258 10.7642 12.4008 10.91C12.1267 10.9858 11.625 11.0383 10.855 11.0733C10.0967 11.1142 9.4025 11.1317 8.76083 11.1317L7.83333 11.1667C5.38917 11.1667 3.86667 11.0733 3.26583 10.91C2.74083 10.7642 2.4025 10.4258 2.25667 9.90083C2.18083 9.62667 2.12833 9.25917 2.09333 8.7925C2.0525 8.32583 2.035 7.92333 2.035 7.57333L2 7.08333C2 5.80583 2.09333 4.86667 2.25667 4.26583C2.4025 3.74083 2.74083 3.4025 3.26583 3.25667C3.54 3.18083 4.04167 3.12833 4.81167 3.09333C5.57 3.0525 6.26417 3.035 6.90583 3.035L7.83333 3C10.2775 3 11.8 3.09333 12.4008 3.25667C12.9258 3.4025 13.2642 3.74083 13.41 4.26583Z" fill="white"/>
</svg>
