<svg width="11" height="11" viewBox="0 0 11 11" fill="none" xmlns="http://www.w3.org/2000/svg">
<path d="M9.33333 0C9.64275 0 9.9395 0.122916 10.1583 0.341709C10.3771 0.560501 10.5 0.857247 10.5 1.16667V9.33333C10.5 9.64275 10.3771 9.9395 10.1583 10.1583C9.9395 10.3771 9.64275 10.5 9.33333 10.5H1.16667C0.857247 10.5 0.560501 10.3771 0.341709 10.1583C0.122916 9.9395 0 9.64275 0 9.33333V1.16667C0 0.857247 0.122916 0.560501 0.341709 0.341709C0.560501 0.122916 0.857247 0 1.16667 0H9.33333ZM9.04167 9.04167V5.95C9.04167 5.44565 8.84131 4.96195 8.48468 4.60532C8.12805 4.24869 7.64435 4.04833 7.14 4.04833C6.64417 4.04833 6.06667 4.35167 5.78667 4.80667V4.15917H4.15917V9.04167H5.78667V6.16583C5.78667 5.71667 6.14833 5.34917 6.5975 5.34917C6.81409 5.34917 7.02182 5.43521 7.17497 5.58836C7.32813 5.74152 7.41417 5.94924 7.41417 6.16583V9.04167H9.04167ZM2.26333 3.24333C2.52325 3.24333 2.77251 3.14008 2.9563 2.9563C3.14008 2.77251 3.24333 2.52325 3.24333 2.26333C3.24333 1.72083 2.80583 1.2775 2.26333 1.2775C2.00187 1.2775 1.75112 1.38136 1.56624 1.56624C1.38136 1.75112 1.2775 2.00187 1.2775 2.26333C1.2775 2.80583 1.72083 3.24333 2.26333 3.24333ZM3.07417 9.04167V4.15917H1.45833V9.04167H3.07417Z" fill="white"/>
</svg>
