<svg width="14" height="14" viewBox="0 0 14 14" fill="none" xmlns="http://www.w3.org/2000/svg">
<path d="M4.54999 1.16663H9.44999C11.3167 1.16663 12.8333 2.68329 12.8333 4.54996V9.44996C12.8333 10.3473 12.4769 11.2078 11.8424 11.8423C11.2079 12.4768 10.3473 12.8333 9.44999 12.8333H4.54999C2.68332 12.8333 1.16666 11.3166 1.16666 9.44996V4.54996C1.16666 3.65264 1.52311 2.79208 2.15761 2.15758C2.79211 1.52308 3.65267 1.16663 4.54999 1.16663ZM4.43332 2.33329C3.87637 2.33329 3.34223 2.55454 2.9484 2.94837C2.55457 3.3422 2.33332 3.87634 2.33332 4.43329V9.56663C2.33332 10.7275 3.27249 11.6666 4.43332 11.6666H9.56666C10.1236 11.6666 10.6578 11.4454 11.0516 11.0516C11.4454 10.6577 11.6667 10.1236 11.6667 9.56663V4.43329C11.6667 3.27246 10.7275 2.33329 9.56666 2.33329H4.43332ZM10.0625 3.20829C10.2559 3.20829 10.4413 3.28512 10.5781 3.42186C10.7148 3.55861 10.7917 3.74407 10.7917 3.93746C10.7917 4.13085 10.7148 4.31631 10.5781 4.45306C10.4413 4.5898 10.2559 4.66663 10.0625 4.66663C9.8691 4.66663 9.68364 4.5898 9.54689 4.45306C9.41015 4.31631 9.33332 4.13085 9.33332 3.93746C9.33332 3.74407 9.41015 3.55861 9.54689 3.42186C9.68364 3.28512 9.8691 3.20829 10.0625 3.20829ZM6.99999 4.08329C7.77354 4.08329 8.5154 4.39058 9.06239 4.93756C9.60937 5.48455 9.91666 6.22641 9.91666 6.99996C9.91666 7.77351 9.60937 8.51537 9.06239 9.06235C8.5154 9.60934 7.77354 9.91663 6.99999 9.91663C6.22644 9.91663 5.48458 9.60934 4.9376 9.06235C4.39061 8.51537 4.08332 7.77351 4.08332 6.99996C4.08332 6.22641 4.39061 5.48455 4.9376 4.93756C5.48458 4.39058 6.22644 4.08329 6.99999 4.08329ZM6.99999 5.24996C6.53586 5.24996 6.09074 5.43433 5.76255 5.76252C5.43436 6.09071 5.24999 6.53583 5.24999 6.99996C5.24999 7.46409 5.43436 7.90921 5.76255 8.2374C6.09074 8.56559 6.53586 8.74996 6.99999 8.74996C7.46412 8.74996 7.90924 8.56559 8.23743 8.2374C8.56562 7.90921 8.74999 7.46409 8.74999 6.99996C8.74999 6.53583 8.56562 6.09071 8.23743 5.76252C7.90924 5.43433 7.46412 5.24996 6.99999 5.24996Z" fill="white"/>
</svg>
