<svg width="48" height="43" viewBox="0 0 48 43" fill="none" xmlns="http://www.w3.org/2000/svg">
<path d="M37.3333 19.9967V13.4375H38.6667L39.4833 15.0836C40.525 17.1916 43 18.1406 45.175 17.2672C46.8833 16.5785 48 14.9156 48 13.0596V6.71875C48 5.11465 47.3 3.67012 46.1917 2.6875H46.6667C47.4 2.6875 48 2.08281 48 1.34375C48 0.604688 47.4 0 46.6667 0H37.3333C31.4417 0 26.6667 4.8123 26.6667 10.75H12.4C9.84167 10.75 7.6 12.1189 6.35833 14.1766C2.76667 14.6553 0 17.7543 0 21.5V26.2031C0 27.3201 0.891667 28.2188 2 28.2188C3.10833 28.2188 4 27.3201 4 26.2031V21.5C4 20.3746 4.55 19.3836 5.39167 18.7705C5.525 19.8623 5.91667 20.9037 6.525 21.8275L8.875 25.3885C9.56667 26.4299 9.40833 27.7988 8.775 28.8822C7.4 31.2338 7.05833 34.1061 7.94167 36.7684L9.4 41.1691C9.76667 42.2693 10.7833 43.0084 11.9333 43.0084H14.7417C16.5583 43.0084 17.85 41.2111 17.275 39.4727L15.5417 34.2236C15.3667 33.6861 15.5 33.0982 15.9 32.6951L16.9583 31.6285C18.0583 30.5199 18.675 29.0166 18.675 27.4545C18.675 27.2613 18.6667 27.0682 18.65 26.875L25.65 28.8906C25.9917 28.9914 26.3333 29.067 26.675 29.1258L26.6667 40.3125C26.6667 41.799 27.8583 43 29.3333 43H32C33.475 43 34.6667 41.799 34.6667 40.3125V26.5139C36.2667 24.9014 37.2917 22.6758 37.3333 20.1562V19.9967ZM41.3333 5.375C41.687 5.375 42.0261 5.51657 42.2761 5.76858C42.5262 6.02058 42.6667 6.36237 42.6667 6.71875C42.6667 7.07513 42.5262 7.41692 42.2761 7.66892C42.0261 7.92093 41.687 8.0625 41.3333 8.0625C40.9797 8.0625 40.6406 7.92093 40.3905 7.66892C40.1405 7.41692 40 7.07513 40 6.71875C40 6.36237 40.1405 6.02058 40.3905 5.76858C40.6406 5.51657 40.9797 5.375 41.3333 5.375Z" fill="black"/>
</svg>
