<svg width="48" height="48" viewBox="0 0 48 48" fill="none" xmlns="http://www.w3.org/2000/svg">
<path d="M46.0019 20.7375C45.6808 20.1712 45.2205 19.6963 44.6645 19.3577C44.1086 19.0191 43.4754 18.828 42.8249 18.8025H42.6749C42.0749 18.8025 41.4824 18.945 40.9469 19.215C38.0939 20.52 34.9919 21.195 31.8524 21.1875H27.4259C27.3854 20.5395 27.3314 19.8375 27.2639 19.062L27.2819 19.0365L27.2954 18.978C27.5714 18.555 27.7769 18.0915 27.9044 17.6025H29.7149C31.3281 17.5985 32.8742 16.9562 34.0153 15.816C35.1564 14.6757 35.7998 13.1301 35.8049 11.517V9.27596C36.5097 9.02717 37.103 8.53591 37.4789 7.88996L37.4999 7.84346L37.5224 7.79696L38.0594 6.69445C38.3229 6.20731 38.392 5.63845 38.2528 5.1024C38.1137 4.56635 37.7766 4.10294 37.3094 3.80545C36.9054 3.556 36.4309 3.44559 35.9583 3.4911C35.4857 3.5366 35.0409 3.73551 34.6919 4.05745C34.492 3.79824 34.2387 3.58499 33.9492 3.43214C33.6597 3.27929 33.3408 3.1904 33.014 3.17148C32.6871 3.15257 32.3601 3.20407 32.0549 3.3225C31.7497 3.44094 31.4735 3.62354 31.2449 3.85795L30.4334 4.66945L30.4019 4.69945L30.3734 4.73245C29.8334 5.33545 29.5514 6.12745 29.5904 6.93745V11.385H28.1234C28.049 10.9481 27.9335 10.5192 27.7784 10.104C27.9921 9.35854 27.9822 8.56679 27.7499 7.82695C28.0226 7.30236 28.092 6.69558 27.9449 6.12295C27.9899 6.01395 28.0269 5.90295 28.0559 5.78995C28.1499 5.43031 28.1607 5.05398 28.0873 4.68956C28.014 4.32515 27.8586 3.98225 27.6328 3.68694C27.4071 3.39163 27.117 3.15167 26.7845 2.98533C26.4521 2.81898 26.0861 2.73062 25.7144 2.72695C25.5886 2.62216 25.453 2.52974 25.3094 2.45095C24.736 2.14461 24.0646 2.07774 23.4419 2.26495C22.696 1.69496 21.7675 1.41713 20.8311 1.4837C19.8946 1.55027 19.0148 1.95666 18.3569 2.62645C17.0946 2.76082 15.927 3.35844 15.0797 4.30377C14.2324 5.24911 13.7658 6.47501 13.7699 7.74446V7.98295C12.4865 8.2618 11.3279 8.94911 10.4679 9.94186C9.60798 10.9346 9.09291 12.1793 8.99994 13.4895C8.98924 13.5891 8.98623 13.6894 8.99094 13.7895C8.93544 14.706 9.05094 15.6255 9.33444 16.5C8.43927 17.7449 7.95856 19.2401 7.96044 20.7735V22.2L7.72494 22.4805C7.23379 23.0922 6.96275 23.8515 6.95544 24.636V25.986C6.9556 26.2958 7.01976 26.6024 7.14392 26.8863C7.26807 27.1702 7.44954 27.4254 7.67694 27.636C8.09267 28.0214 8.63855 28.2356 9.20544 28.236H9.38694C9.70271 28.2098 10.0094 28.1173 10.2869 27.9645C10.5713 28.0722 10.8745 28.1213 11.1783 28.1086C11.4821 28.096 11.7802 28.0218 12.0545 27.8908C12.3289 27.7597 12.5738 27.5743 12.7746 27.346C12.9753 27.1176 13.1277 26.8509 13.2224 26.562C13.3384 26.457 13.4434 26.3415 13.5374 26.2155C13.4093 26.7474 13.3464 27.2929 13.3499 27.84V28.77C13.3408 30.282 12.9843 31.7716 12.3081 33.124C11.6319 34.4764 10.654 35.6554 9.44994 36.57C8.78678 37.0975 8.25287 37.7696 7.88893 38.5349C7.52499 39.3003 7.34064 40.1386 7.34994 40.986C7.35235 42.2662 7.79923 43.506 8.61424 44.4933C9.42925 45.4807 10.5618 46.1544 11.8184 46.3995C12.1084 46.4675 12.4034 46.5015 12.7034 46.5015H27.5849C28.319 46.4979 29.0361 46.2807 29.6488 45.8763C30.2614 45.472 30.7431 44.898 31.0349 44.2245C31.4766 44.9199 32.0862 45.4929 32.8077 45.8906C33.5291 46.2883 34.3391 46.4978 35.1629 46.5H38.4194L37.5764 44.433L36.4739 41.733C37.163 41.4575 37.7557 40.9853 38.1782 40.3753C38.6007 39.7653 38.8344 39.0444 38.8499 38.3025C38.8705 38.0831 38.9721 37.8793 39.1349 37.7309C39.2978 37.5825 39.5101 37.5001 39.7304 37.5H41.4884C42.8587 37.4193 44.145 36.8126 45.0787 35.8065C46.0125 34.8003 46.5216 33.4725 46.4999 32.1V22.605C46.4933 21.9505 46.322 21.3083 46.0019 20.7375ZM29.7149 12.885C30.0809 12.885 30.432 12.7396 30.6908 12.4808C30.9496 12.222 31.0949 11.871 31.0949 11.505V6.86995C31.0761 6.45167 31.2214 6.04258 31.4999 5.72995L32.3249 4.90495C32.4709 4.7568 32.669 4.67172 32.8769 4.66795H32.8874C33.0029 4.667 33.1171 4.69167 33.2218 4.7402C33.3266 4.78873 33.4192 4.8599 33.4931 4.94858C33.567 5.03727 33.6203 5.14125 33.6492 5.25302C33.678 5.3648 33.6817 5.48159 33.6599 5.59495C33.6337 5.74849 33.5603 5.89004 33.4499 5.99995L33.4139 6.03595L34.6139 6.37495H34.7714C34.8283 6.37505 34.8841 6.35976 34.9329 6.33071C34.9818 6.30166 35.0219 6.25993 35.0489 6.20995L35.5889 5.30995C35.6796 5.15722 35.8268 5.04637 35.9987 5.00144C36.1705 4.95651 36.3531 4.98113 36.5069 5.06995C36.6574 5.16582 36.7649 5.31622 36.8068 5.48962C36.8488 5.66302 36.8219 5.84592 36.7319 5.99995L36.1769 7.13996C36.0353 7.38772 35.8307 7.59366 35.5839 7.73695C35.3371 7.88025 35.0568 7.95579 34.7714 7.95595H34.3049V11.505C34.301 12.7211 33.8161 13.8863 32.9562 14.7462C32.0963 15.6061 30.9311 16.091 29.7149 16.095H28.0274C27.9662 15.2359 27.6676 14.4108 27.1649 13.7115L26.7149 12.9615C26.7149 12.918 26.7314 12.8745 26.7329 12.831V12.885H29.7149ZM23.8649 3.70195C23.9924 3.6609 24.1272 3.64793 24.2601 3.66393C24.393 3.67993 24.5208 3.72453 24.6349 3.79466C24.7489 3.86479 24.8464 3.95878 24.9206 4.07017C24.9949 4.18157 25.0441 4.30772 25.0649 4.43995C25.1799 4.34931 25.3134 4.28489 25.4559 4.25121C25.5984 4.21753 25.7465 4.21539 25.8899 4.24495C26.0149 4.26983 26.1331 4.32094 26.2367 4.39489C26.3404 4.46884 26.4272 4.56396 26.4914 4.67395C26.5582 4.7828 26.6019 4.90423 26.6197 5.03068C26.6375 5.15713 26.6291 5.2859 26.5949 5.40895C26.5349 5.64895 26.3849 5.85895 26.1749 5.99395C26.3141 6.11232 26.4158 6.26868 26.4676 6.44391C26.5194 6.61914 26.519 6.80566 26.4665 6.98067C26.414 7.15569 26.3117 7.31162 26.172 7.42941C26.0323 7.5472 25.8613 7.62175 25.6799 7.64396C25.4541 7.66948 25.2264 7.61651 25.0349 7.49395C24.9797 7.60934 24.9004 7.71162 24.8024 7.79395V8.14495L24.7334 9.84295C24.7184 10.492 24.518 11.1232 24.156 11.6622C23.7941 12.2012 23.2856 12.6254 22.6904 12.885C21.7528 13.2892 20.6933 13.3064 19.7429 12.933L19.6019 12.8745C19.013 12.6142 18.5103 12.1916 18.1527 11.656C17.7952 11.1205 17.5975 10.4942 17.5829 9.85045L17.5139 8.15245H17.5229V7.96196L17.5154 7.74145C17.5045 7.53209 17.5531 7.32391 17.6555 7.14101C17.758 6.9581 17.9102 6.80796 18.0944 6.70795L18.1319 6.69295L18.1679 6.67795C18.5558 6.5029 18.8611 6.18475 19.0199 5.78995L19.0784 5.65045C19.091 5.61865 19.1119 5.59088 19.1391 5.57014C19.1663 5.5494 19.1986 5.53647 19.2326 5.53277C19.2665 5.52906 19.3009 5.53471 19.3319 5.54911C19.3629 5.56351 19.3894 5.5861 19.4084 5.61445C19.6624 5.98505 20.0029 6.28806 20.4005 6.49718C20.7981 6.7063 21.2407 6.81521 21.6899 6.81446H22.9409L22.8839 6.79495C22.7385 6.73965 22.6092 6.64873 22.508 6.53051C22.4068 6.4123 22.3369 6.27058 22.3046 6.11833C22.2724 5.96608 22.2789 5.80818 22.3235 5.65909C22.3681 5.50999 22.4494 5.37448 22.5599 5.26495C22.6544 5.16268 22.7713 5.08371 22.9014 5.03426C23.0316 4.9848 23.1714 4.96622 23.3099 4.97995C23.2506 4.85053 23.2199 4.70983 23.2199 4.56745C23.2199 4.42508 23.2506 4.28438 23.3099 4.15495L23.3354 4.10995C23.4581 3.91434 23.6472 3.76949 23.8679 3.70195H23.8649ZM12.7649 19.602C12.568 19.9776 12.4709 20.3975 12.4829 20.8215V24.8865C12.4841 24.9945 12.4619 25.1014 12.4179 25.2001C12.3739 25.2987 12.3091 25.3867 12.2279 25.458C12.1093 25.5594 11.9619 25.6213 11.8064 25.635C11.8645 25.8134 11.8536 26.0071 11.7759 26.1779C11.6981 26.3487 11.5592 26.4841 11.3864 26.5575C11.2047 26.6316 11.0012 26.6316 10.8194 26.5575C10.7284 26.5214 10.6454 26.4679 10.5749 26.4L9.97494 25.8135V25.98C9.97554 26.1729 9.90323 26.3589 9.7725 26.5007C9.64176 26.6426 9.46226 26.7298 9.26994 26.745H9.20994C9.01103 26.745 8.82027 26.6659 8.67961 26.5253C8.53896 26.3846 8.45994 26.1939 8.45994 25.995V24.645C8.46195 24.2093 8.60982 23.7868 8.87994 23.445L9.34494 22.89C9.38996 22.8362 9.42377 22.7741 9.44438 22.7071C9.46499 22.6401 9.47198 22.5697 9.46494 22.5V20.775C9.46028 19.2871 10.0286 17.8545 11.0519 16.7745C11.3819 16.4305 11.7479 16.1305 12.1499 15.8745L16.8899 13.5795C17.0799 13.4895 17.2799 13.437 17.4899 13.422H17.5874C17.9577 13.4235 18.3155 13.5557 18.5978 13.7953C18.8801 14.0348 19.0688 14.3663 19.1306 14.7313C19.1925 15.0963 19.1235 15.4715 18.9359 15.7906C18.7482 16.1098 18.454 16.3525 18.1049 16.476L14.9999 17.991L13.6049 18.675C13.2493 18.9061 12.959 19.2248 12.7619 19.6005L12.7649 19.602ZM13.9799 24.87V21.2325C14.7119 21.483 15.4784 21.6165 16.2509 21.627L16.3364 22.284C15.3147 22.9593 14.4984 23.9027 13.9769 25.011C13.9799 24.965 13.9809 24.918 13.9799 24.87ZM44.9999 23.325C44.996 22.9641 44.851 22.6192 44.5958 22.3641C44.3407 22.1089 43.9958 21.9639 43.6349 21.96C43.2795 21.9865 42.9473 22.1467 42.7051 22.4083C42.463 22.6699 42.329 23.0135 42.3299 23.37V24.72C42.33 25.3221 42.0918 25.8997 41.6675 26.3269C41.2431 26.754 40.667 26.996 40.0649 27H39.6299C39.1074 26.9959 38.6044 27.1987 38.2307 27.5639C37.857 27.9292 37.6428 28.4274 37.6349 28.95C37.6369 29.2467 37.5802 29.5409 37.468 29.8156C37.3558 30.0903 37.1904 30.3401 36.9813 30.5506C36.7721 30.7612 36.5234 30.9282 36.2495 31.0423C35.9755 31.1563 35.6817 31.215 35.3849 31.215H33.7499C33.4552 31.213 33.1629 31.2693 32.89 31.3808C32.6171 31.4922 32.369 31.6565 32.1599 31.8642C31.9507 32.072 31.7848 32.319 31.6715 32.5912C31.5582 32.8633 31.4999 33.1552 31.4999 33.45V33.51L34.3499 40.5L36.1859 45H35.1659C34.5483 44.998 33.9428 44.828 33.4144 44.5083C32.8859 44.1886 32.4544 43.7311 32.1659 43.185L31.3904 41.6745L30.9404 40.809L28.3259 35.709H26.2259C25.6363 35.7113 25.0715 35.9466 24.6545 36.3636C24.2376 36.7805 24.0023 37.3453 23.9999 37.935C24 38.5331 23.7634 39.1069 23.3419 39.5313C22.9203 39.9556 22.3481 40.196 21.7499 40.2H19.2899L16.7549 45C16.244 45.0026 15.7503 44.8147 15.3704 44.473C14.9904 44.1313 14.7514 43.6603 14.6999 43.152C14.6699 42.8157 14.7213 42.4771 14.8499 42.165L15.6299 40.2H12.7499C12.1015 40.2 11.4796 40.4576 11.0211 40.9161C10.5625 41.3746 10.3049 41.9965 10.3049 42.645C10.3136 43.1216 10.464 43.5849 10.7371 43.9758C11.0101 44.3666 11.3933 44.6673 11.8379 44.8395C11.9579 44.8825 12.0799 44.916 12.2039 44.94C12.1799 44.941 12.1564 44.9385 12.1334 44.9325C11.8573 44.8806 11.5874 44.8002 11.3279 44.6925C10.6803 44.4175 10.1148 43.9798 9.68626 43.4217C9.25776 42.8637 8.98085 42.2043 8.88242 41.5076C8.784 40.811 8.86741 40.1007 9.12455 39.4458C9.38169 38.7908 9.80382 38.2136 10.3499 37.77C11.7403 36.7157 12.8694 35.3555 13.6497 33.7949C14.4301 32.2342 14.8407 30.5148 14.8499 28.77V27.84C14.85 26.8382 15.1417 25.8582 15.6893 25.0195C16.237 24.1807 17.0169 23.5195 17.9339 23.1165C17.8341 22.0772 17.6955 21.0419 17.5184 20.013C17.4344 19.5315 17.3144 19.0575 17.2184 18.579L18.7079 17.85C19.0947 17.6971 19.4468 17.4682 19.7433 17.1767C20.0399 16.8852 20.2749 16.5372 20.4344 16.1531C20.5939 15.7691 20.6746 15.3569 20.6718 14.9411C20.669 14.5253 20.5826 14.1143 20.4179 13.7325C20.3469 13.5938 20.2651 13.4609 20.1734 13.335L22.4999 15.42C22.5574 15.4712 22.6252 15.5097 22.6987 15.5326C22.7722 15.5555 22.8498 15.5625 22.9263 15.553C23.0027 15.5434 23.0762 15.5177 23.1419 15.4774C23.2075 15.4371 23.2638 15.3833 23.3069 15.3195C23.3638 15.2333 23.3954 15.1331 23.3984 15.03V12.885H24.8984L25.9184 14.55C26.3061 15.0649 26.5256 15.6868 26.5471 16.331C26.5685 16.9752 26.3909 17.6103 26.0384 18.15C25.8243 18.4501 25.7282 18.8185 25.7684 19.185C25.8749 20.4105 25.9604 21.6045 25.9994 22.68H31.8524C35.2259 22.68 38.5574 21.9555 41.6249 20.55C41.9504 20.385 42.3104 20.2995 42.6749 20.2995H42.7664C43.3637 20.323 43.929 20.5756 44.3449 21.0049C44.7608 21.4342 44.9954 22.0072 44.9999 22.605V23.325ZM31.4999 33.5625C31.4849 34.035 31.4999 34.0125 31.4999 33.5625V33.5625ZM23.2799 5.54995C23.3327 5.46761 23.4062 5.40066 23.4932 5.35589C23.5801 5.31111 23.6773 5.29009 23.7749 5.29495C23.7349 5.19855 23.7222 5.09302 23.7381 4.98986C23.7539 4.8867 23.7978 4.78988 23.8649 4.70995C23.9359 4.63275 24.0259 4.5755 24.1259 4.54392C24.2259 4.51234 24.3325 4.50752 24.4349 4.52995C24.5371 4.56089 24.6288 4.61917 24.7002 4.69849C24.7716 4.77781 24.8199 4.87514 24.8399 4.97995C24.906 4.92575 24.9837 4.88753 25.067 4.86827C25.1502 4.84902 25.2368 4.84925 25.3199 4.86895C25.3917 4.88306 25.4599 4.9116 25.5203 4.95285C25.5807 4.9941 25.6322 5.04719 25.6714 5.10892C25.7107 5.17064 25.737 5.2397 25.7488 5.3119C25.7606 5.38411 25.7576 5.45795 25.7399 5.52895C25.7075 5.67463 25.6219 5.80298 25.4999 5.88895C25.6041 5.97693 25.6733 6.09933 25.6949 6.23395C25.7179 6.31277 25.7188 6.39637 25.6977 6.47569C25.6765 6.55501 25.6341 6.62703 25.5749 6.68395C25.4807 6.78518 25.3537 6.84976 25.2164 6.86623C25.0791 6.88271 24.9404 6.85001 24.8249 6.77395C24.7924 6.85461 24.7414 6.9265 24.676 6.98382C24.6106 7.04114 24.5327 7.08229 24.4484 7.10395C24.3443 7.13321 24.234 7.13225 24.1305 7.10117C24.0269 7.07009 23.9343 7.01019 23.8634 6.92845C23.8081 6.85696 23.7697 6.77389 23.7509 6.68545C23.7309 6.59758 23.7309 6.50632 23.7509 6.41845C23.6578 6.41845 23.5659 6.39677 23.4826 6.35511C23.3993 6.31345 23.3268 6.25297 23.2709 6.17845C23.205 6.08665 23.1695 5.97648 23.1695 5.86345C23.1695 5.75043 23.205 5.64026 23.2709 5.54845L23.2799 5.54995ZM19.4999 8.36996C19.3381 8.37767 19.1855 8.44744 19.0737 8.56476C18.962 8.68208 18.8998 8.83794 18.8999 8.99996C18.8969 9.05491 18.8969 9.11 18.8999 9.16496H18.6149C18.5848 9.16788 18.5545 9.1616 18.5279 9.14696C18.5009 9.13442 18.4772 9.11587 18.4585 9.09273C18.4397 9.06959 18.4266 9.04247 18.4199 9.01345C18.411 8.98463 18.411 8.95378 18.4199 8.92495L18.4529 8.82296C18.4186 8.79487 18.391 8.75952 18.3719 8.71946C18.3528 8.67916 18.3428 8.63509 18.3428 8.59046C18.3428 8.54582 18.3528 8.50175 18.3719 8.46145C18.3897 8.4206 18.4164 8.38422 18.4499 8.35496C18.6914 8.199 18.9725 8.1157 19.2599 8.11495C19.3999 8.12502 19.5369 8.15954 19.6649 8.21696C19.8415 8.27026 19.9996 8.37181 20.1215 8.51015C20.2434 8.64849 20.3243 8.81813 20.3549 8.99996C20.3539 9.04595 20.3379 9.08496 20.3069 9.11695C20.2921 9.13299 20.274 9.1456 20.2537 9.15389C20.2335 9.16218 20.2118 9.16596 20.1899 9.16496H20.1359C20.139 9.11 20.139 9.05491 20.1359 8.99996C20.1359 8.91671 20.1195 8.8343 20.0874 8.75747C20.0554 8.68064 20.0084 8.61092 19.9493 8.55234C19.8902 8.49376 19.82 8.44748 19.7429 8.41618C19.6657 8.38487 19.5832 8.36916 19.4999 8.36996ZM23.8499 8.45995C23.8767 8.52026 23.8839 8.58744 23.8704 8.65204C23.857 8.71663 23.8236 8.77536 23.7749 8.81995L23.8079 8.92196C23.8147 8.95107 23.8147 8.98134 23.8079 9.01046C23.8022 9.04056 23.7894 9.06888 23.7706 9.09312C23.7519 9.11735 23.7276 9.13683 23.6999 9.14995C23.6734 9.1646 23.6431 9.17088 23.6129 9.16795H23.3339C23.337 9.113 23.337 9.05791 23.3339 9.00295C23.3339 8.83985 23.2691 8.68342 23.1538 8.56808C23.0385 8.45275 22.8821 8.38795 22.7189 8.38795C22.5558 8.38795 22.3994 8.45275 22.2841 8.56808C22.1687 8.68342 22.1039 8.83985 22.1039 9.00295C22.1009 9.05791 22.1009 9.113 22.1039 9.16795H22.0349C22.013 9.16796 21.9913 9.16359 21.9711 9.15511C21.9509 9.14664 21.9326 9.13421 21.9172 9.11857C21.9018 9.10293 21.8897 9.08439 21.8816 9.06402C21.8735 9.04365 21.8695 9.02187 21.8699 8.99996C21.9013 8.81365 21.9854 8.64023 22.1122 8.50015C22.239 8.36008 22.4032 8.25921 22.5854 8.20946C22.7059 8.15741 22.8341 8.12549 22.9649 8.11495C23.2524 8.1157 23.5335 8.199 23.7749 8.35496C23.8073 8.3841 23.8329 8.41993 23.8499 8.45995ZM19.7849 8.74496C19.8183 8.77847 19.8448 8.81825 19.8628 8.862C19.8808 8.90576 19.8901 8.95264 19.8899 8.99996C19.8784 9.06318 19.8468 9.12102 19.7999 9.16496H19.1699C19.1545 9.11104 19.1545 9.05387 19.1699 8.99996C19.1699 8.93596 19.1854 8.87645 19.2164 8.82146C19.2271 8.83936 19.2423 8.85417 19.2604 8.86442C19.2786 8.87468 19.2991 8.88003 19.3199 8.87996C19.3446 8.87978 19.3687 8.87199 19.3888 8.85765C19.4089 8.84331 19.4241 8.82311 19.4323 8.79981C19.4405 8.77652 19.4413 8.75125 19.4346 8.72748C19.4279 8.7037 19.4141 8.68256 19.3949 8.66695C19.4604 8.6402 19.5323 8.63334 19.6017 8.64721C19.6711 8.66108 19.7348 8.69508 19.7849 8.74496ZM23.0279 8.86195C23.0478 8.90517 23.057 8.95247 23.0549 8.99996C23.0699 9.05496 23.0699 9.10996 23.0549 9.16496H22.4249C22.378 9.12102 22.3465 9.06318 22.3349 8.99996C22.3349 8.95195 22.3439 8.90595 22.3619 8.86195L22.3814 8.82146C22.3921 8.83936 22.4073 8.85417 22.4254 8.86442C22.4436 8.87468 22.4641 8.88003 22.4849 8.87996C22.5096 8.87978 22.5337 8.87199 22.5538 8.85765C22.5739 8.84331 22.5891 8.82311 22.5973 8.79981C22.6055 8.77652 22.6063 8.75125 22.5996 8.72748C22.5929 8.7037 22.5791 8.68256 22.5599 8.66695C22.6254 8.6402 22.6973 8.63334 22.7667 8.64721C22.8361 8.66108 22.8998 8.69508 22.9499 8.74496C22.9829 8.77895 23.0089 8.81796 23.0279 8.86195ZM22.2599 10.905C22.2748 10.9198 22.2849 10.9387 22.2889 10.9593C22.2929 10.9798 22.2907 11.0012 22.2824 11.0205C22.1593 11.2225 21.9862 11.3895 21.7798 11.5053C21.5735 11.6212 21.3408 11.682 21.1042 11.682C20.8676 11.682 20.6349 11.6212 20.4286 11.5053C20.2222 11.3895 20.0491 11.2225 19.9259 11.0205C19.9192 11.0043 19.9166 10.9868 19.9183 10.9694C19.9201 10.952 19.9262 10.9353 19.936 10.9209C19.9458 10.9064 19.9591 10.8946 19.9746 10.8866C19.9902 10.8786 20.0075 10.8746 20.0249 10.875C20.0539 10.875 20.0789 10.885 20.0999 10.905C20.4117 11.0619 20.7559 11.1437 21.1049 11.1437C21.454 11.1437 21.7982 11.0619 22.1099 10.905C22.1197 10.895 22.1314 10.887 22.1443 10.8816C22.1571 10.8762 22.171 10.8734 22.1849 10.8734C22.1989 10.8734 22.2127 10.8762 22.2256 10.8816C22.2385 10.887 22.2502 10.895 22.2599 10.905ZM20.5499 10.329C20.5166 10.2839 20.4942 10.2317 20.4846 10.1765C20.4749 10.1213 20.4783 10.0646 20.4944 10.011L20.8544 8.85595C20.8722 8.80275 20.907 8.75688 20.9534 8.72545C20.9991 8.69317 21.0536 8.67583 21.1094 8.67583C21.1653 8.67583 21.2198 8.69317 21.2654 8.72545C21.3114 8.75845 21.3444 8.80195 21.3644 8.85595L21.7244 10.011C21.7406 10.0646 21.744 10.1213 21.7343 10.1765C21.7247 10.2317 21.7023 10.2839 21.6689 10.329C21.6351 10.3741 21.5915 10.4111 21.5413 10.4371C21.4912 10.463 21.4359 10.4774 21.3794 10.479H20.8394C20.783 10.4774 20.7277 10.463 20.6775 10.4371C20.6274 10.4111 20.5838 10.3741 20.5499 10.329ZM23.8874 7.49996C23.8935 7.52864 23.8935 7.55827 23.8874 7.58696C23.8819 7.62666 23.8665 7.66435 23.8427 7.69658C23.8188 7.72881 23.7873 7.75455 23.7509 7.77146C23.7039 7.79247 23.6516 7.79874 23.6009 7.78945H23.4959C23.1915 7.62353 22.8457 7.54904 22.4999 7.57495C22.4394 7.58507 22.3773 7.57113 22.3268 7.53611C22.2764 7.50108 22.2416 7.44774 22.2299 7.38745C22.2211 7.32992 22.235 7.27122 22.2685 7.22367C22.3021 7.17612 22.3528 7.14343 22.4099 7.13245C22.8779 7.05745 23.3564 7.13546 23.7749 7.35745C23.8019 7.36945 23.8249 7.38695 23.8439 7.40995C23.8634 7.43731 23.8781 7.46773 23.8874 7.49996ZM18.4049 7.66496C18.3766 7.61486 18.3686 7.55581 18.3824 7.49996C18.3978 7.44476 18.4324 7.39688 18.4799 7.36495C18.9044 7.1453 19.3877 7.0665 19.8599 7.13996C19.8899 7.14295 19.9169 7.15245 19.9409 7.16845C19.966 7.18348 19.9874 7.20396 20.0035 7.22836C20.0196 7.25277 20.03 7.28048 20.0339 7.30945C20.0369 7.33945 20.0339 7.36795 20.0249 7.39495C20.014 7.45211 19.9813 7.5028 19.9337 7.53636C19.8862 7.56993 19.8275 7.58376 19.7699 7.57495C19.4049 7.52452 19.0331 7.58735 18.7049 7.75496L18.5999 7.78496C18.56 7.78278 18.5213 7.77066 18.4872 7.74971C18.4532 7.72875 18.4249 7.69962 18.4049 7.66496Z" fill="black"/>
</svg>
