<svg width="48" height="48" viewBox="0 0 48 48" fill="none" xmlns="http://www.w3.org/2000/svg">
<path d="M19.5 2.13843C18.7841 2.6563 17.4563 3.76968 17.3545 4.43221C17.5752 4.73118 17.9648 4.99415 18.2457 5.15624H20.7543C21.1015 4.89477 21.4565 4.74337 21.6455 4.43221C21.2191 3.39693 20.3638 2.74471 19.5 2.13852V2.13843ZM18.6588 6.84374L17.5807 11.1562H21.4193L20.3412 6.84374H18.6588ZM28.5 8.95312C26.9976 10.9558 25.0939 12.8762 23.4994 14.6301C22.5722 15.6501 21.7515 16.6126 21.1864 17.4602C20.6213 18.3078 20.3438 19.0312 20.3438 19.5C20.3438 19.6969 20.3603 19.8855 20.3895 20.0667C24.6174 17.407 28.0294 13.463 29.5009 10.2103C29.1543 9.79537 28.8175 9.3764 28.5 8.95312ZM30.7077 11.5992C28.9015 15.1553 25.3919 18.9852 21.049 21.643C21.484 22.2592 22.0254 22.6937 22.3894 22.9415C27.225 19.93 30.3652 16.5877 32.1282 13.1451C31.6583 12.6399 31.1799 12.124 30.7077 11.5992ZM17.2705 12.8437L16.5273 21.0197L17.202 22.032C18.5359 24.0327 20.1949 25.4205 21.6562 26.6889V24.4823C20.7128 23.8779 18.6562 22.2473 18.6562 19.5C18.6562 18.4687 19.1287 17.5047 19.7824 16.5242C20.338 15.6906 21.0486 14.8383 21.8311 13.9611L21.7295 12.8437H17.2705ZM33.3408 14.456C31.633 17.5476 28.931 20.4855 25.1236 23.1562H28.0639C31.5909 20.6487 33.6835 18.3829 34.4564 15.7106C34.0555 15.2473 33.7079 14.8551 33.3408 14.456ZM39 14.9355C38.4735 15.6129 37.9223 16.2164 37.3728 16.7655C37.4556 16.8958 37.5363 17.0261 37.6112 17.1562H41.0262C40.3463 16.5061 39.6541 15.7771 39 14.9355ZM35.6898 17.2813C34.7881 19.435 33.1449 21.3127 30.8655 23.1562H34.268C34.6517 22.9395 36.6562 21.7137 36.6562 19.5C36.6562 19.0312 36.3787 18.3078 35.8136 17.4602C35.7745 17.4016 35.7312 17.3411 35.6898 17.2813ZM8.15625 18.6424C7.46719 20.1107 6.94237 21.3764 6.62663 22.5344C6.14728 24.2917 6.10219 25.8097 6.62419 27.6562H8.15625V18.6424ZM9.84375 18.6424V27.6562H10.2609C10.7368 27.2126 11.1888 26.8219 11.6468 26.4253C11.8527 25.0977 11.7422 23.8866 11.3734 22.5344C11.0576 21.3764 10.5327 20.1108 9.84375 18.6424ZM38.28 18.8437C38.3625 19.2909 38.3545 19.7352 38.3032 20.1562H44.358C43.8482 19.6568 43.4055 19.2708 42.9117 18.8437H38.28ZM5.83744 19.6915C4.54341 20.9366 2.42081 22.4679 2.34375 24C2.34375 26.2137 4.34831 27.4395 4.73203 27.6562H4.88344C4.42125 25.7162 4.49606 23.9324 4.99838 22.0906C5.21072 21.3123 5.49422 20.5215 5.83744 19.6915ZM12.1626 19.6915C12.5058 20.5215 12.7893 21.3123 13.0016 22.0906C13.2519 23.0084 13.3959 23.9121 13.4203 24.8276C14.0587 24.2111 14.6896 23.5348 15.2753 22.7642C14.3813 21.4972 13.2362 20.6331 12.1626 19.6915ZM37.7917 21.8437C37.5406 22.3481 37.2265 22.785 36.8982 23.1562H45.5947C45.6338 22.9479 45.6562 22.7296 45.6562 22.5C45.6565 22.277 45.621 22.0555 45.5513 21.8437H37.7917ZM16.5 23.9356C15.0656 25.7811 13.4466 27.0897 12.1806 28.1975C11.4418 28.844 10.8268 29.4248 10.428 29.9631C10.0294 30.5016 9.84375 30.9609 9.84375 31.5C9.84375 33.7137 11.8483 34.9395 12.232 35.1562H20.5893C20.7672 32.9767 21 30.9673 21.6562 28.959C21.4017 28.7149 21.1217 28.462 20.8194 28.1975C19.5534 27.0897 17.9345 25.7811 16.5 23.9356ZM23.3438 24.8437V29.1562H33.6562V24.8437H23.3438ZM35.3438 24.8437V26.1562H43.268C43.4831 26.0347 44.2076 25.5958 44.8027 24.8437H35.3438ZM35.3438 27.8437V29.6928C35.5947 30.0492 35.7019 30.4491 35.8281 30.9269C35.9912 31.5445 36.1197 32.2922 36.2294 33.1458C36.4867 35.4961 36.619 37.6095 36.6966 39.6562H42.6562V27.8437H35.3438ZM5.34375 29.3437V41.1562H11.1562V36.4823C10.2128 35.8779 8.15625 34.2473 8.15625 31.5C8.15625 30.7037 8.41556 29.9817 8.81081 29.3437H5.34375ZM23.0026 30.8437C22.6628 31.7279 22.5355 32.816 22.4354 33.6562H34.5908C34.4075 32.7015 34.3403 31.6139 34.0095 30.8437H23.0026ZM22.2671 35.3437C22.1666 36.5478 22.0891 37.876 22.0305 39.2241C21.9651 40.7291 21.9238 42.2105 21.897 43.5734L24.3658 35.3437H22.2671ZM26.5293 35.3437L28.5 45.1972L30.4707 35.3437H26.5293ZM32.6342 35.3437L35.1171 43.6203C35.0936 42.2425 35.0557 40.7433 34.992 39.2186C34.9357 37.8724 34.8603 36.5458 34.7602 35.3437H32.6342ZM12.8438 36.8437V41.1562H20.1562V36.8437H12.8438ZM25.3361 37.983L22.8373 46.3125H27.002L25.3361 37.983ZM31.6639 37.983L29.9979 46.3125H34.1627L31.6639 37.983ZM36.7523 41.3437C36.8041 43.1897 36.8252 44.8861 36.8349 46.3125H45.2312C44.7749 44.6038 44.2463 42.7369 43.1068 41.3437H36.7523ZM4.85653 42.8437C3.81741 43.8838 2.92641 44.8266 2.54625 46.3125H8.93484C9.30928 45.1256 9.78703 43.8398 10.346 42.8437H4.85653ZM12.4023 42.8437C11.6399 44.0327 11.057 45.1898 10.7035 46.3125H20.1716C20.1815 45.2713 20.1967 44.1071 20.2256 42.8437H12.4023Z" fill="black"/>
</svg>
