<svg width="48" height="48" viewBox="0 0 48 48" fill="none" xmlns="http://www.w3.org/2000/svg">
<path fill-rule="evenodd" clip-rule="evenodd" d="M14 10.762C14 14.334 17 14.048 17 14.048V18.048C17 18.048 13.8 25.048 11 21.937C11 25.047 13.8 25.047 13.8 25.047H15V29.047C15 29.047 12.6 36.047 9 32.937C9 34.607 10.039 35.381 11 35.739V44.048H37V35.739C37.962 35.381 39 34.608 39 32.937C36.251 35.312 33.94 31.792 33 29.995V25.048H34.2C34.2 25.048 37 25.048 37 21.937C34.728 24.461 31.962 20.329 31 18.68V14.048C31 14.048 34 14.334 34 10.762C30 15.048 24 4.04797 24 4.04797C24 4.04797 18 15.048 14 10.762ZM13 42.048V36.048H15V42.048H13ZM17 42.048H19V40.048C19 39.5175 19.2107 39.0088 19.5858 38.6338C19.9609 38.2587 20.4696 38.048 21 38.048H27C27.5304 38.048 28.0391 38.2587 28.4142 38.6338C28.7893 39.0088 29 39.5175 29 40.048V42.048H31V36.048H17V42.048ZM33 36.048V42.048H35V36.048H33ZM29 14.048V18.048H27V17.048C27 16.7828 26.8946 16.5284 26.7071 16.3409C26.5196 16.1533 26.2652 16.048 26 16.048C25.7348 16.048 25.4804 16.1533 25.2929 16.3409C25.1054 16.5284 25 16.7828 25 17.048V18.048H23V17.048C23 16.7828 22.8946 16.5284 22.7071 16.3409C22.5196 16.1533 22.2652 16.048 22 16.048C21.7348 16.048 21.4804 16.1533 21.2929 16.3409C21.1054 16.5284 21 16.7828 21 17.048V18.048H19V14.048H29ZM17 29.048V25.048H31V29.048H29V28.048C29 27.7828 28.8946 27.5284 28.7071 27.3409C28.5196 27.1533 28.2652 27.048 28 27.048C27.7348 27.048 27.4804 27.1533 27.2929 27.3409C27.1054 27.5284 27 27.7828 27 28.048V29.048H25V28.048C25 27.7828 24.8946 27.5284 24.7071 27.3409C24.5196 27.1533 24.2652 27.048 24 27.048C23.7348 27.048 23.4804 27.1533 23.2929 27.3409C23.1054 27.5284 23 27.7828 23 28.048V29.048H21V28.048C21 27.7828 20.8946 27.5284 20.7071 27.3409C20.5196 27.1533 20.2652 27.048 20 27.048C19.7348 27.048 19.4804 27.1533 19.2929 27.3409C19.1054 27.5284 19 27.7828 19 28.048V29.048H17Z" fill="black"/>
</svg>
