<svg width="48" height="48" viewBox="0 0 48 48" fill="none" xmlns="http://www.w3.org/2000/svg">
<path d="M4 44H44" stroke="black" stroke-width="2" stroke-linecap="round" stroke-linejoin="round"/>
<path d="M21.2498 7.47449L36.7046 11.6156L28.0004 43.9998H11.0004L21.2498 7.47449Z" stroke="black" stroke-width="2" stroke-linejoin="round"/>
<path d="M19.3174 6.95703L38.6359 12.1334" stroke="black" stroke-width="2" stroke-linecap="round" stroke-linejoin="round"/>
<path d="M16.2109 18.5479L35.5295 23.7242" stroke="black" stroke-width="2" stroke-linecap="round" stroke-linejoin="round"/>
<path d="M25.4823 20.9316L26.5176 17.0679" stroke="black" stroke-width="2" stroke-linecap="round"/>
<path d="M13.1055 30.1392L32.424 35.3155" stroke="black" stroke-width="2" stroke-linecap="round" stroke-linejoin="round"/>
<path d="M22.4823 31.9316L23.5176 28.0679" stroke="black" stroke-width="2" stroke-linecap="round"/>
<path d="M33.8763 6.71633L26.1489 4.64578C25.6155 4.50284 25.0671 4.81942 24.9242 5.35289L24.4066 7.28474C24.2636 7.81821 24.5802 8.36654 25.1137 8.50949L32.8411 10.58C33.3745 10.723 33.9229 10.4064 34.0658 9.87293L34.5835 7.94108C34.7264 7.40761 34.4098 6.85928 33.8763 6.71633Z" stroke="black" stroke-width="2" stroke-linecap="round" stroke-linejoin="round"/>
<path d="M19.4823 42.9316L20.5176 39.0679" stroke="black" stroke-width="2" stroke-linecap="round"/>
</svg>
