<svg width="48" height="48" viewBox="0 0 48 48" fill="none" xmlns="http://www.w3.org/2000/svg">
<path d="M24.0024 5C24.0644 5 24.1644 5.174 24.2784 5.44L24.4564 5.896L24.5464 6.156L24.7184 6.706L24.7944 6.976L24.9204 7.476C24.9724 7.704 25.0024 7.89 25.0024 8L24.9964 8.104C25.5504 8.222 26.0564 8.436 26.5104 8.724C26.5282 8.59496 26.571 8.47063 26.6364 8.358C26.7842 8.14486 26.9523 7.94659 27.1384 7.766L27.5304 7.38L27.9524 6.99L28.3604 6.646C28.6804 6.386 28.9344 6.22 29.0024 6.26C29.0824 6.306 29.0424 6.736 28.9464 7.264L28.8344 7.814L28.7004 8.368L28.5604 8.864C28.5122 9.03437 28.4479 9.19977 28.3684 9.358C28.3001 9.47642 28.2083 9.57958 28.0985 9.66111C27.9888 9.74263 27.8635 9.8008 27.7304 9.832C28.3811 10.657 28.8013 11.6398 28.9481 12.6801C29.095 13.7205 28.9633 14.7812 28.5664 15.754C28.4366 16.0734 28.2265 16.3538 27.9564 16.568L27.7504 16.71L27.7864 16.718C28.6401 16.8885 29.4149 17.3329 29.9932 17.9837C30.5714 18.6345 30.9215 19.4562 30.9904 20.324L31.0024 20.64V24.172L31.5884 23.586C31.9483 23.2273 32.4313 23.0191 32.9392 23.0035C33.4471 22.988 33.9419 23.1664 34.323 23.5025C34.7041 23.8386 34.943 24.3071 34.9912 24.8129C35.0394 25.3188 34.8933 25.824 34.5824 26.226L34.4164 26.414L31.0024 29.828V35C31.4923 35.0001 31.9651 35.1799 32.3312 35.5054C32.6972 35.831 32.9311 36.2795 32.9884 36.766L33.0024 37V41C33.5122 41.0006 34.0025 41.1958 34.3732 41.5457C34.7438 41.8956 34.9669 42.3739 34.9968 42.8828C35.0266 43.3917 34.8611 43.8928 34.5339 44.2837C34.2067 44.6746 33.7426 44.9258 33.2364 44.986L33.0024 45H15.0024C14.4927 44.9994 14.0024 44.8042 13.6317 44.4543C13.261 44.1044 13.038 43.6261 13.0081 43.1172C12.9782 42.6083 13.1438 42.1072 13.471 41.7163C13.7981 41.3254 14.2622 41.0742 14.7684 41.014L15.0024 41V37C15.0025 36.5101 15.1823 36.0373 15.5079 35.6713C15.8334 35.3052 16.2819 35.0713 16.7684 35.014L17.0024 35V27.828L13.5884 24.414C13.2776 24.1029 13.078 23.698 13.0204 23.262L13.0024 23V10.732C12.6378 10.5222 12.3487 10.2027 12.1761 9.81911C12.0035 9.43548 11.9563 9.0072 12.0411 8.59518C12.1259 8.18316 12.3385 7.80839 12.6486 7.52415C12.9588 7.23992 13.3506 7.06071 13.7684 7.012L14.0024 7H16.0024C16.3317 6.99978 16.6559 7.08085 16.9463 7.23602C17.2367 7.39119 17.4843 7.61565 17.6671 7.88949C17.8499 8.16333 17.9623 8.47806 17.9943 8.80576C18.0263 9.13346 17.9769 9.46399 17.8504 9.768L17.7364 9.996L19.0644 12.652C19.2129 11.622 19.6302 10.6493 20.2744 9.832C20.1413 9.8008 20.0161 9.74263 19.9063 9.66111C19.7966 9.57958 19.7047 9.47642 19.6364 9.358C19.557 9.19977 19.4927 9.03437 19.4444 8.864L19.3044 8.368L19.1704 7.814L19.0584 7.264C18.9624 6.736 18.9204 6.306 19.0024 6.26C19.0704 6.22 19.3244 6.388 19.6444 6.646L20.0524 6.99L20.4744 7.38L20.8664 7.766C21.1064 8.014 21.2944 8.23 21.3684 8.358C21.4341 8.47124 21.4769 8.59627 21.4944 8.726C21.9464 8.436 22.4544 8.222 23.0084 8.104L23.0024 8C23.0024 7.89 23.0324 7.704 23.0824 7.476L23.2104 6.976L23.3704 6.43C23.4273 6.25096 23.4873 6.07293 23.5504 5.896L23.7264 5.44C23.8404 5.174 23.9404 5 24.0024 5ZM29.0024 39H19.0024V41H29.0024V39ZM27.0024 22.828L21.0024 28.828V35H27.0024V22.828ZM17.0024 17.472V22.172L19.5024 24.672L24.1124 20.062L18.6104 18.962C17.7744 18.794 17.3544 18.176 17.0024 17.472ZM24.0024 12C23.8364 12 23.6164 12.074 23.4004 12.326C23.1329 12.6579 22.9919 13.0739 23.0024 13.5C23.0024 13.6867 23.0244 13.86 23.0684 14.02L23.1424 14.246C23.2423 14.4907 23.2927 14.7529 23.2906 15.0172C23.2885 15.2815 23.2341 15.5428 23.1304 15.786L25.0984 16.18C24.9239 15.9408 24.8047 15.6658 24.7493 15.375C24.694 15.0841 24.7039 14.7846 24.7784 14.498L24.8624 14.246C24.9563 14.0085 25.0038 13.7553 25.0024 13.5C25.013 13.0739 24.8719 12.6579 24.6044 12.326C24.3884 12.074 24.1684 12 24.0024 12ZM15.0024 0C15.3144 0 17.0024 2.896 17.0024 4C17.0024 4.53043 16.7917 5.03914 16.4166 5.41421C16.0416 5.78929 15.5329 6 15.0024 6C14.472 6 13.9633 5.78929 13.5882 5.41421C13.2131 5.03914 13.0024 4.53043 13.0024 4C13.0024 2.896 14.6904 0 15.0024 0Z" fill="black"/>
</svg>
