<svg width="48" height="48" viewBox="0 0 48 48" fill="none" xmlns="http://www.w3.org/2000/svg">
<path d="M40.5 15.75H38.25V13.5C38.2475 11.3127 37.3775 9.21575 35.8309 7.66911C34.2843 6.12247 32.1873 5.25248 30 5.25H28.1756C25.8319 3.33375 22.7213 2.25 19.5 2.25C12.4688 2.25 6.75 7.2975 6.75 13.5V39C6.75 39.9946 7.14509 40.9484 7.84835 41.6516C8.55161 42.3549 9.50544 42.75 10.5 42.75H34.5C35.4946 42.75 36.4484 42.3549 37.1516 41.6516C37.8549 40.9484 38.25 39.9946 38.25 39V38.25H40.5C41.8924 38.25 43.2277 37.6969 44.2123 36.7123C45.1969 35.7277 45.75 34.3924 45.75 33V21C45.75 19.6076 45.1969 18.2723 44.2123 17.2877C43.2277 16.3031 41.8924 15.75 40.5 15.75ZM19.5 6.75C21.9094 6.75 24.1875 7.61625 25.77 9.12562C26.1889 9.5265 26.7464 9.75017 27.3263 9.75H30C30.8645 9.74982 31.7025 10.0483 32.3722 10.595C33.0419 11.1417 33.5021 11.903 33.675 12.75H11.3025C11.76 9.375 15.2606 6.75 19.5 6.75ZM33.75 38.25H11.25V17.25H33.75V38.25ZM41.25 33C41.25 33.1989 41.171 33.3897 41.0303 33.5303C40.8897 33.671 40.6989 33.75 40.5 33.75H38.25V20.25H40.5C40.6989 20.25 40.8897 20.329 41.0303 20.4697C41.171 20.6103 41.25 20.8011 41.25 21V33ZM20.25 22.5V33C20.25 33.5967 20.0129 34.169 19.591 34.591C19.169 35.0129 18.5967 35.25 18 35.25C17.4033 35.25 16.831 35.0129 16.409 34.591C15.9871 34.169 15.75 33.5967 15.75 33V22.5C15.75 21.9033 15.9871 21.331 16.409 20.909C16.831 20.4871 17.4033 20.25 18 20.25C18.5967 20.25 19.169 20.4871 19.591 20.909C20.0129 21.331 20.25 21.9033 20.25 22.5ZM29.25 22.5V33C29.25 33.5967 29.0129 34.169 28.591 34.591C28.169 35.0129 27.5967 35.25 27 35.25C26.4033 35.25 25.831 35.0129 25.409 34.591C24.9871 34.169 24.75 33.5967 24.75 33V22.5C24.75 21.9033 24.9871 21.331 25.409 20.909C25.831 20.4871 26.4033 20.25 27 20.25C27.5967 20.25 28.169 20.4871 28.591 20.909C29.0129 21.331 29.25 21.9033 29.25 22.5Z" fill="black"/>
</svg>
