<svg width="48" height="48" viewBox="0 0 48 48" fill="none" xmlns="http://www.w3.org/2000/svg">
<path fill-rule="evenodd" clip-rule="evenodd" d="M21.6137 0.222879C21.9224 0.359948 22.201 0.55648 22.4337 0.801252C22.6664 1.04602 22.8486 1.33424 22.9699 1.64944C23.0912 1.96464 23.1493 2.30064 23.1407 2.63827C23.1321 2.9759 23.0571 3.30853 22.92 3.61716C22.44 4.70059 21.9703 6.38402 21.5863 8.52002C28.5643 8.27393 35.5107 7.45981 42.3566 6.08574C43.0258 5.95252 43.7206 6.09062 44.288 6.46966C44.8554 6.8487 45.2491 7.43762 45.3823 8.10688C45.5155 8.77613 45.3774 9.4709 44.9984 10.0383C44.6193 10.6058 44.0304 10.9994 43.3611 11.1326C35.952 12.6069 28.4468 13.4812 20.9348 13.6869C20.76 15.8366 20.6777 18.144 20.7086 20.5097C23.2217 20.1909 25.6663 20.2217 27.7886 20.6126C28.7988 20.8023 29.7828 21.0412 30.7406 21.3292C30.8617 20.632 30.9028 20.0092 30.864 19.4606C30.8316 19.1187 30.8679 18.7738 30.971 18.4462C31.074 18.1186 31.2416 17.815 31.4639 17.5532C31.6863 17.2914 31.9587 17.0769 32.2653 16.9221C32.5719 16.7674 32.9064 16.6756 33.249 16.6523C33.5916 16.6289 33.9355 16.6744 34.2602 16.7861C34.585 16.8978 34.8841 17.0734 35.1398 17.3026C35.3956 17.5317 35.6029 17.8098 35.7494 18.1204C35.896 18.431 35.9789 18.7678 35.9931 19.1109C36.0738 20.5321 35.9326 21.9571 35.5748 23.3349C38.9074 25.1623 41.5371 27.6892 42.9257 30.6857C44.1394 33.2983 44.3726 36.2297 43.2686 39.1235C42.1886 41.9692 39.9086 44.5406 36.5451 46.728C35.9732 47.0995 35.2771 47.2285 34.61 47.0867C33.9429 46.945 33.3594 46.544 32.988 45.972C32.6165 45.4001 32.4875 44.704 32.6293 44.0369C32.7711 43.3698 33.172 42.7863 33.744 42.4149C36.4868 40.6355 37.8754 38.8423 38.4651 37.296C38.7435 36.5816 38.8691 35.8167 38.8336 35.0508C38.7982 34.2849 38.6026 33.5348 38.2594 32.8492C37.4949 31.1966 35.9417 29.5509 33.7508 28.2206C32.4905 30.7394 30.9444 33.1047 29.1428 35.2697C27.773 36.939 26.2623 38.4876 24.6274 39.8983C25.4366 41.3897 26.3623 42.5932 27.3874 43.4743C27.9 43.9196 28.2157 44.5495 28.2655 45.2266C28.3154 45.9038 28.0955 46.5732 27.6537 47.0887C27.2119 47.6043 26.5841 47.9242 25.9073 47.9787C25.2305 48.0332 24.5597 47.8177 24.0411 47.3795C22.6017 46.1134 21.3848 44.6149 20.4411 42.9463C18.1714 44.304 15.7783 45.2674 13.3543 45.6206C11.3451 45.9155 8.91085 45.7783 6.78856 44.8732C4.58399 43.9372 2.56113 42.072 2.12571 39.0275C1.07313 31.6457 5.56456 26.4926 10.8926 23.5989C12.3936 22.7963 13.9661 22.1351 15.5897 21.624C15.5181 18.9884 15.5788 16.3508 15.7714 13.7212C11.5424 13.6632 7.31932 13.3816 3.11999 12.8777C2.44255 12.7964 1.82519 12.4492 1.40371 11.9126C0.98224 11.3761 0.791179 10.694 0.872562 10.0166C0.953946 9.33916 1.30111 8.72179 1.83768 8.30032C2.37424 7.87884 3.05627 7.68778 3.73371 7.76917C7.92383 8.26946 12.138 8.54186 16.3577 8.58517C16.8034 5.77374 17.4274 3.30517 18.2194 1.52917C18.3565 1.2205 18.553 0.94185 18.7978 0.709145C19.0426 0.476439 19.3308 0.294231 19.646 0.172927C19.9612 0.0516235 20.2972 -0.00639988 20.6348 0.00217098C20.9724 0.0107418 21.3051 0.0857391 21.6137 0.222879ZM15.9291 26.9486C15.0354 27.2846 14.1737 27.6766 13.344 28.1246C9.08913 30.432 6.57942 33.8435 7.21713 38.3075C7.33713 39.144 7.81713 39.7269 8.80113 40.1452C9.87085 40.5977 11.3143 40.728 12.6068 40.536C14.424 40.272 16.368 39.456 18.2983 38.2286C18.168 37.8614 18.0434 37.4922 17.9246 37.1212C16.9303 33.9566 16.2891 30.4663 15.9291 26.9486ZM22.5977 34.8C23.4937 33.9314 24.3531 32.9989 25.176 32.0023C26.6674 30.2083 27.9574 28.2561 29.0228 26.1806C28.3088 25.978 27.5857 25.8087 26.856 25.6732C25.1691 25.3612 23.1188 25.3543 20.9726 25.6629C21.2606 28.8789 21.7886 32.0092 22.5977 34.8Z" fill="black"/>
</svg>
