<svg xmlns="http://www.w3.org/2000/svg" width="32" height="32" fill="none" viewBox="0 0 32 32">
   <path fill="#ff919f" d="M0 0h32v32H0z" />
   <path fill="#fff"
      d="M21.112 10.912 17.99 7.138l-.855-1.4L17.818 4l-4.15 3.477 3.123 3.732.856 1.399-.684 1.738z" />
   <path fill="#fff"
      d="m15.08 9.216-4.877.084-1.625-.212-.899-1.611.128 5.385 4.877-.085 1.626.212.899 1.612z" />
   <path fill="#fff"
      d="m9.99 12.862-2.953 3.859-1.155 1.187L4 17.611l4.32 3.223 2.953-3.859 1.155-1.145 1.882.297z" />
   <path fill="#fff"
      d="m9.69 19.095 1.155 4.707.214 1.611-1.412 1.273 5.22-1.357-1.199-4.707-.213-1.611 1.411-1.23z" />
   <path fill="#fff"
      d="m14.396 23.209 4.406 2.035 1.412.89.128 1.866 2.182-4.919-4.45-2.035-1.41-.848-.13-1.866z" />
   <path fill="#fff"
      d="m20.556 22.106 4.364-2.163 1.54-.55 1.54 1.06-2.481-4.75-4.364 2.163-1.583.551-1.54-1.06z" />
   <path fill="#fff"
      d="m23.55 16.636.985-4.75.556-1.568 1.797-.509-5.305-1.06-.984 4.75-.556 1.568-1.797.509z" />
</svg>