<svg width="256" height="256" viewBox="0 0 256 256" fill="none" xmlns="http://www.w3.org/2000/svg">
<path d="M44.844 139.084H30.388L27.996 146H20.352L33.404 109.652H41.88L54.932 146H47.236L44.844 139.084ZM42.868 133.26L37.616 118.076L32.364 133.26H42.868ZM57.9387 131.596C57.9387 128.615 58.5453 126.015 59.7587 123.796C60.972 121.543 62.6533 119.809 64.8027 118.596C66.952 117.348 69.4133 116.724 72.1867 116.724C75.7573 116.724 78.704 117.625 81.0267 119.428C83.384 121.196 84.9613 123.692 85.7587 126.916H77.9067C77.4907 125.668 76.78 124.697 75.7747 124.004C74.804 123.276 73.5907 122.912 72.1347 122.912C70.0547 122.912 68.408 123.675 67.1947 125.2C65.9813 126.691 65.3747 128.823 65.3747 131.596C65.3747 134.335 65.9813 136.467 67.1947 137.992C68.408 139.483 70.0547 140.228 72.1347 140.228C75.0813 140.228 77.0053 138.911 77.9067 136.276H85.7587C84.9613 139.396 83.384 141.875 81.0267 143.712C78.6693 145.549 75.7227 146.468 72.1867 146.468C69.4133 146.468 66.952 145.861 64.8027 144.648C62.6533 143.4 60.972 141.667 59.7587 139.448C58.5453 137.195 57.9387 134.577 57.9387 131.596ZM89.2199 131.492C89.2199 128.58 89.7919 125.997 90.9359 123.744C92.1146 121.491 93.6919 119.757 95.6679 118.544C97.6786 117.331 99.9146 116.724 102.376 116.724C104.525 116.724 106.397 117.157 107.992 118.024C109.621 118.891 110.921 119.983 111.892 121.3V117.192H119.224V146H111.892V141.788C110.956 143.14 109.656 144.267 107.992 145.168C106.363 146.035 104.473 146.468 102.324 146.468C99.8972 146.468 97.6786 145.844 95.6679 144.596C93.6919 143.348 92.1146 141.597 90.9359 139.344C89.7919 137.056 89.2199 134.439 89.2199 131.492ZM111.892 131.596C111.892 129.828 111.545 128.32 110.852 127.072C110.159 125.789 109.223 124.819 108.044 124.16C106.865 123.467 105.6 123.12 104.248 123.12C102.896 123.12 101.648 123.449 100.504 124.108C99.3599 124.767 98.4239 125.737 97.6959 127.02C97.0026 128.268 96.6559 129.759 96.6559 131.492C96.6559 133.225 97.0026 134.751 97.6959 136.068C98.4239 137.351 99.3599 138.339 100.504 139.032C101.683 139.725 102.931 140.072 104.248 140.072C105.6 140.072 106.865 139.743 108.044 139.084C109.223 138.391 110.159 137.42 110.852 136.172C111.545 134.889 111.892 133.364 111.892 131.596ZM124.462 131.492C124.462 128.58 125.034 125.997 126.178 123.744C127.357 121.491 128.951 119.757 130.962 118.544C132.973 117.331 135.209 116.724 137.67 116.724C139.542 116.724 141.327 117.14 143.026 117.972C144.725 118.769 146.077 119.844 147.082 121.196V107.52H154.466V146H147.082V141.736C146.181 143.157 144.915 144.301 143.286 145.168C141.657 146.035 139.767 146.468 137.618 146.468C135.191 146.468 132.973 145.844 130.962 144.596C128.951 143.348 127.357 141.597 126.178 139.344C125.034 137.056 124.462 134.439 124.462 131.492ZM147.134 131.596C147.134 129.828 146.787 128.32 146.094 127.072C145.401 125.789 144.465 124.819 143.286 124.16C142.107 123.467 140.842 123.12 139.49 123.12C138.138 123.12 136.89 123.449 135.746 124.108C134.602 124.767 133.666 125.737 132.938 127.02C132.245 128.268 131.898 129.759 131.898 131.492C131.898 133.225 132.245 134.751 132.938 136.068C133.666 137.351 134.602 138.339 135.746 139.032C136.925 139.725 138.173 140.072 139.49 140.072C140.842 140.072 142.107 139.743 143.286 139.084C144.465 138.391 145.401 137.42 146.094 136.172C146.787 134.889 147.134 133.364 147.134 131.596ZM188.356 130.972C188.356 132.012 188.287 132.948 188.148 133.78H167.088C167.262 135.86 167.99 137.489 169.272 138.668C170.555 139.847 172.132 140.436 174.004 140.436C176.708 140.436 178.632 139.275 179.776 136.952H187.628C186.796 139.725 185.202 142.013 182.844 143.816C180.487 145.584 177.592 146.468 174.16 146.468C171.387 146.468 168.891 145.861 166.672 144.648C164.488 143.4 162.772 141.649 161.524 139.396C160.311 137.143 159.704 134.543 159.704 131.596C159.704 128.615 160.311 125.997 161.524 123.744C162.738 121.491 164.436 119.757 166.62 118.544C168.804 117.331 171.318 116.724 174.16 116.724C176.899 116.724 179.343 117.313 181.492 118.492C183.676 119.671 185.358 121.352 186.536 123.536C187.75 125.685 188.356 128.164 188.356 130.972ZM180.816 128.892C180.782 127.02 180.106 125.529 178.788 124.42C177.471 123.276 175.859 122.704 173.952 122.704C172.15 122.704 170.624 123.259 169.376 124.368C168.163 125.443 167.418 126.951 167.14 128.892H180.816ZM200.95 107.52V146H193.67V107.52H200.95ZM235.703 117.192L217.867 159.624H210.119L216.359 145.272L204.815 117.192H212.979L220.415 137.316L227.955 117.192H235.703Z" fill="#0F172A"/>
<path d="M138.651 72.3993L132.144 64.5371L130.362 61.6219L131.788 58L123.143 65.2438L129.649 73.0177L131.431 75.9329L130.005 79.5548L138.651 72.3993Z" fill="#0F172A"/>
<path d="M126.084 68.8657L115.923 69.0424L112.537 68.6007L110.665 65.2438L110.932 76.4629L121.093 76.2862L124.48 76.7279L126.351 80.0848L126.084 68.8657Z" fill="#0F172A"/>
<path d="M115.478 76.4629L109.328 84.5018L106.922 86.9753L103 86.3569L112.002 93.0707L118.152 85.0318L120.558 82.6467L124.48 83.265L115.478 76.4629Z" fill="#0F172A"/>
<path d="M114.854 89.4488L117.26 99.2544L117.706 102.611L114.765 105.261L125.638 102.435L123.143 92.629L122.697 89.2721L125.638 86.7103L114.854 89.4488Z" fill="#0F172A"/>
<path d="M124.658 98.0177L133.838 102.258L136.779 104.113L137.046 108L141.592 97.7527L132.323 93.5124L129.381 91.7456L129.114 87.8587L124.658 98.0177Z" fill="#0F172A"/>
<path d="M137.492 95.7208L146.583 91.2155L149.791 90.0671L153 92.2756L147.831 82.3816L138.74 86.8869L135.442 88.0353L132.234 85.8269L137.492 95.7208Z" fill="#0F172A"/>
<path d="M143.731 84.3251L145.781 74.4311L146.939 71.1625L150.683 70.1025L139.631 67.894L137.581 77.788L136.422 81.0565L132.679 82.1166L143.731 84.3251Z" fill="#0F172A"/>
</svg>
