<svg xmlns="http://www.w3.org/2000/svg" width="216" height="102" fill="none" viewBox="0 0 216 102">
   <path fill="#0f172a"
      d="M24.492 81.084H10.036L7.644 88H0l13.052-36.348h8.476L34.58 88h-7.696zm-1.976-5.824-5.252-15.184-5.252 15.184zm15.071-1.664q0-4.471 1.82-7.8 1.82-3.38 5.044-5.2 3.223-1.872 7.384-1.872 5.355 0 8.84 2.704 3.535 2.652 4.732 7.488h-7.852q-.624-1.872-2.132-2.912-1.456-1.092-3.64-1.092-3.12 0-4.94 2.288-1.82 2.236-1.82 6.396 0 4.108 1.82 6.396 1.82 2.236 4.94 2.236 4.419 0 5.772-3.952h7.852q-1.197 4.68-4.732 7.436t-8.84 2.756q-4.16 0-7.384-1.82-3.225-1.872-5.044-5.2-1.82-3.38-1.82-7.852m31.281-.104q0-4.368 1.716-7.748 1.768-3.38 4.732-5.2 3.016-1.82 6.708-1.82 3.224 0 5.616 1.3 2.445 1.3 3.9 3.276v-4.108h7.332V88H91.54v-4.212q-1.404 2.028-3.9 3.38-2.445 1.3-5.668 1.3-3.64 0-6.656-1.872-2.964-1.872-4.732-5.252-1.716-3.432-1.716-7.852m22.672.104q0-2.652-1.04-4.524-1.04-1.924-2.808-2.912a7.36 7.36 0 0 0-3.796-1.04q-2.028 0-3.744.988-1.716.989-2.808 2.912-1.04 1.872-1.04 4.472t1.04 4.576q1.092 1.924 2.808 2.964 1.769 1.04 3.744 1.04 2.028 0 3.796-.988 1.769-1.04 2.808-2.912 1.04-1.924 1.04-4.576m12.57-.104q0-4.368 1.716-7.748 1.768-3.38 4.784-5.2t6.708-1.82q2.808 0 5.356 1.248 2.548 1.196 4.056 3.224V49.52h7.384V88h-7.384v-4.264q-1.352 2.132-3.796 3.432t-5.668 1.3q-3.64 0-6.656-1.872t-4.784-5.252q-1.716-3.432-1.716-7.852m22.672.104q0-2.652-1.04-4.524-1.04-1.924-2.808-2.912a7.36 7.36 0 0 0-3.796-1.04q-2.028 0-3.744.988-1.716.989-2.808 2.912-1.04 1.872-1.04 4.472t1.04 4.576q1.092 1.924 2.808 2.964 1.769 1.04 3.744 1.04 2.028 0 3.796-.988 1.769-1.04 2.808-2.912 1.04-1.924 1.04-4.576m41.222-.624q0 1.56-.208 2.808h-21.06q.261 3.12 2.184 4.888t4.732 1.768q4.056 0 5.772-3.484h7.852q-1.248 4.16-4.784 6.864-3.536 2.652-8.684 2.652-4.16 0-7.488-1.82-3.276-1.872-5.148-5.252-1.82-3.38-1.82-7.8 0-4.472 1.82-7.852t5.096-5.2 7.54-1.82q4.108 0 7.332 1.768a12.2 12.2 0 0 1 5.044 5.044q1.82 3.225 1.82 7.436m-7.54-2.08q-.051-2.808-2.028-4.472-1.976-1.716-4.836-1.716-2.703 0-4.576 1.664-1.82 1.613-2.236 4.524zm20.134-21.372V88h-7.28V49.52zm34.753 9.672-17.836 42.432h-7.748l6.24-14.352-11.544-28.08h8.164l7.436 20.124 7.54-20.124zM118.299 14.4l-6.507-7.863-1.782-2.915L111.436 0l-8.645 7.244 6.506 7.774 1.782 2.915-1.426 3.622z" />
   <path fill="#0f172a"
      d="m105.732 10.866-10.16.176-3.388-.441-1.871-3.357.267 11.219 10.161-.177 3.387.442 1.871 3.357z" />
   <path fill="#0f172a"
      d="m95.126 18.463-6.15 8.039-2.406 2.473-3.922-.618 9.002 6.714 6.15-8.04 2.406-2.384 3.922.618z" />
   <path fill="#0f172a"
      d="m94.502 31.449 2.406 9.805.446 3.357-2.941 2.65 10.873-2.826-2.495-9.806-.446-3.357 2.941-2.562z" />
   <path fill="#0f172a"
      d="m104.306 40.018 9.18 4.24 2.941 1.855.267 3.887 4.546-10.247-9.269-4.24-2.942-1.767-.267-3.887z" />
   <path fill="#0f172a"
      d="m117.14 37.72 9.091-4.504 3.208-1.149 3.209 2.209-5.169-9.894-9.091 4.505-3.298 1.148-3.208-2.208z" />
   <path fill="#0f172a"
      d="m123.379 26.325 2.05-9.894 1.158-3.269 3.744-1.06-11.052-2.208-2.05 9.894-1.159 3.268-3.743 1.06z" />
</svg>