<svg width="101" height="48" viewBox="0 0 101 48" fill="none" xmlns="http://www.w3.org/2000/svg">
<path d="M11.4806 38.0081H4.70438L3.58313 41.25H0L6.11812 24.2119H10.0913L16.2094 41.25H12.6019L11.4806 38.0081ZM10.5544 35.2781L8.0925 28.1606L5.63062 35.2781H10.5544ZM17.6188 34.4981C17.6188 33.1008 17.9031 31.882 18.4719 30.8419C19.0406 29.7858 19.8287 28.973 20.8363 28.4044C21.8438 27.8194 22.9975 27.5269 24.2975 27.5269C25.9712 27.5269 27.3525 27.9492 28.4413 28.7944C29.5463 29.6231 30.2856 30.7931 30.6594 32.3044H26.9788C26.7838 31.7194 26.4506 31.2642 25.9794 30.9394C25.5244 30.5981 24.9556 30.4275 24.2731 30.4275C23.2981 30.4275 22.5263 30.7852 21.9575 31.5C21.3887 32.1989 21.1044 33.1983 21.1044 34.4981C21.1044 35.782 21.3887 36.7814 21.9575 37.4963C22.5263 38.1952 23.2981 38.5444 24.2731 38.5444C25.6544 38.5444 26.5562 37.927 26.9788 36.6919H30.6594C30.2856 38.1544 29.5463 39.3164 28.4413 40.1775C27.3362 41.0386 25.955 41.4694 24.2975 41.4694C22.9975 41.4694 21.8438 41.1848 20.8363 40.6162C19.8287 40.0312 19.0406 39.2189 18.4719 38.1788C17.9031 37.1227 17.6188 35.8955 17.6188 34.4981ZM32.2818 34.4494C32.2818 33.0844 32.55 31.8736 33.0862 30.8175C33.6387 29.7614 34.3781 28.9486 35.3043 28.38C36.2468 27.8114 37.295 27.5269 38.4487 27.5269C39.4561 27.5269 40.3336 27.7298 41.0812 28.1363C41.8448 28.5427 42.4542 29.0545 42.9094 29.6719V27.7463H46.3463V41.25H42.9094V39.2756C42.4706 39.9094 41.8612 40.4377 41.0812 40.86C40.3177 41.2664 39.4317 41.4694 38.4244 41.4694C37.2868 41.4694 36.2468 41.1769 35.3043 40.5919C34.3781 40.0069 33.6387 39.1861 33.0862 38.13C32.55 37.0575 32.2818 35.8308 32.2818 34.4494ZM42.9094 34.4981C42.9094 33.6694 42.7467 32.9625 42.4219 32.3775C42.097 31.7761 41.6583 31.3214 41.1056 31.0125C40.553 30.6877 39.96 30.525 39.3263 30.525C38.6925 30.525 38.1075 30.6792 37.5713 30.9881C37.035 31.297 36.5962 31.7517 36.255 32.3531C35.93 32.9381 35.7675 33.637 35.7675 34.4494C35.7675 35.2617 35.93 35.977 36.255 36.5944C36.5962 37.1958 37.035 37.6589 37.5713 37.9838C38.1239 38.3086 38.7089 38.4713 39.3263 38.4713C39.96 38.4713 40.553 38.317 41.1056 38.0081C41.6583 37.6833 42.097 37.2281 42.4219 36.6431C42.7467 36.0417 42.9094 35.3269 42.9094 34.4981ZM48.8016 34.4494C48.8016 33.0844 49.0697 31.8736 49.6059 30.8175C50.1586 29.7614 50.9058 28.9486 51.8484 28.38C52.7911 27.8114 53.8392 27.5269 54.9928 27.5269C55.8703 27.5269 56.707 27.7219 57.5034 28.1119C58.2998 28.4855 58.9336 28.9894 59.4047 29.6231V23.2125H62.8659V41.25H59.4047V39.2513C58.9823 39.9173 58.3889 40.4536 57.6253 40.86C56.8617 41.2664 55.9758 41.4694 54.9684 41.4694C53.8308 41.4694 52.7911 41.1769 51.8484 40.5919C50.9058 40.0069 50.1586 39.1861 49.6059 38.13C49.0697 37.0575 48.8016 35.8308 48.8016 34.4494ZM59.4291 34.4981C59.4291 33.6694 59.2664 32.9625 58.9416 32.3775C58.6167 31.7761 58.178 31.3214 57.6253 31.0125C57.0727 30.6877 56.4797 30.525 55.8459 30.525C55.2122 30.525 54.6272 30.6792 54.0909 30.9881C53.5547 31.297 53.1159 31.7517 52.7747 32.3531C52.4498 32.9381 52.2872 33.637 52.2872 34.4494C52.2872 35.2617 52.4498 35.977 52.7747 36.5944C53.1159 37.1958 53.5547 37.6589 54.0909 37.9838C54.6436 38.3086 55.2286 38.4713 55.8459 38.4713C56.4797 38.4713 57.0727 38.317 57.6253 38.0081C58.178 37.6833 58.6167 37.2281 58.9416 36.6431C59.2664 36.0417 59.4291 35.3269 59.4291 34.4981ZM78.7519 34.2056C78.7519 34.6931 78.7195 35.1319 78.6544 35.5219H68.7825C68.8641 36.4969 69.2053 37.2605 69.8063 37.8131C70.4077 38.3658 71.1469 38.6419 72.0244 38.6419C73.2919 38.6419 74.1937 38.0977 74.73 37.0088H78.4106C78.0206 38.3086 77.2734 39.3811 76.1681 40.2262C75.0633 41.055 73.7062 41.4694 72.0975 41.4694C70.7977 41.4694 69.6277 41.1848 68.5875 40.6162C67.5637 40.0312 66.7594 39.2105 66.1744 38.1544C65.6058 37.0983 65.3212 35.8795 65.3212 34.4981C65.3212 33.1008 65.6058 31.8736 66.1744 30.8175C66.7434 29.7614 67.5394 28.9486 68.5631 28.38C69.5869 27.8114 70.7653 27.5269 72.0975 27.5269C73.3814 27.5269 74.527 27.803 75.5344 28.3556C76.5581 28.9083 77.3466 29.6963 77.8987 30.72C78.4678 31.7273 78.7519 32.8894 78.7519 34.2056ZM75.2175 33.2306C75.2016 32.3531 74.8847 31.6542 74.2669 31.1344C73.6495 30.5981 72.8939 30.33 72 30.33C71.1553 30.33 70.44 30.5902 69.855 31.11C69.2864 31.6139 68.9372 32.3208 68.8069 33.2306H75.2175ZM84.6553 23.2125V41.25H81.2428V23.2125H84.6553ZM100.946 27.7463L92.5852 47.6362H88.9533L91.8783 40.9088L86.467 27.7463H90.2939L93.7795 37.1794L97.3139 27.7463H100.946Z" fill="white"/>
<path d="M55.4527 6.74967L52.4025 3.06427L51.5672 1.69776L52.2356 0L48.1833 3.39553L51.233 7.03955L52.0683 8.40605L51.3998 10.1038L55.4527 6.74967Z" fill="white"/>
<path d="M49.5619 5.09329L44.7989 5.17612L43.2117 4.96908L42.3342 3.39553L42.4594 8.65448L47.2223 8.57165L48.81 8.7787L49.687 10.3522L49.5619 5.09329Z" fill="white"/>
<path d="M44.5903 8.65448L41.7075 12.4227L40.5797 13.5822L38.7412 13.2923L42.9609 16.4394L45.8438 12.6712L46.9716 11.5531L48.81 11.843L44.5903 8.65448Z" fill="white"/>
<path d="M44.2978 14.7416L45.4256 19.338L45.6347 20.9114L44.2561 22.1536L49.3528 20.8289L48.1833 16.2323L47.9742 14.6588L49.3528 13.458L44.2978 14.7416Z" fill="white"/>
<path d="M48.8934 18.7583L53.1966 20.7459L54.5752 21.6155L54.7003 23.4375L56.8312 18.6341L52.4864 16.6464L51.1073 15.8183L50.9822 13.9963L48.8934 18.7583Z" fill="white"/>
<path d="M54.9094 17.6816L59.1708 15.5698L60.6745 15.0315L62.1787 16.0667L59.7558 11.4289L55.4944 13.5407L53.9484 14.079L52.4447 13.0439L54.9094 17.6816Z" fill="white"/>
<path d="M57.8339 12.3399L58.7948 7.70208L59.3376 6.16992L61.0927 5.67305L55.912 4.63781L54.9511 9.27563L54.4078 10.8077L52.6533 11.3047L57.8339 12.3399Z" fill="white"/>
</svg>
